<svg width="80" height="80" viewBox="0 0 80 80" fill="none" xmlns="http://www.w3.org/2000/svg">
<path d="M43.5754 18.8492C46.3881 18.8715 48.9823 20.3693 50.408 22.794L54.5081 29.7668L58.4967 36.804C59.8837 39.251 59.8837 42.2466 58.4967 44.6936L54.5081 51.7308L50.408 58.7036C48.9823 61.1283 46.3881 62.6261 43.5754 62.6484L35.4867 62.7127L27.398 62.6484C24.5854 62.6261 21.9911 61.1283 20.5654 58.7036L16.4654 51.7308L12.4767 44.6936C11.0898 42.2466 11.0898 39.251 12.4767 36.804L16.4654 29.7668L20.5654 22.794C21.9911 20.3693 24.5854 18.8715 27.398 18.8492L35.4867 18.7849L43.5754 18.8492Z" fill="url(#paint0_linear)"/>
<path d="M46.1621 32.1964L51.0633 36.6289C51.8144 37.3082 52.9549 37.3188 53.7185 36.6535L65.19 26.6592L76.3607 16.927C77.2431 16.1582 77.2797 14.7993 76.44 13.984L68.5796 6.35257C67.8036 5.59918 66.5692 5.59918 65.7932 6.35257L53.8188 17.9781C53.0248 18.749 51.7557 18.7285 50.9869 17.9324L40.0139 6.56887C39.2626 5.79081 38.0288 5.75102 37.2289 6.47906L29.1385 13.8428C28.265 14.638 28.2672 16.013 29.1433 16.8053L33.7262 20.9499" stroke="#161251" stroke-width="2" stroke-linecap="round"/>
<defs>
<linearGradient id="paint0_linear" x1="44.7274" y1="75.2353" x2="13.9288" y2="7.15892" gradientUnits="userSpaceOnUse">
<stop stop-color="#0087FC" stop-opacity="0.48"/>
<stop offset="1" stop-color="#0087FC" stop-opacity="0.2"/>
</linearGradient>
</defs>
</svg>
