<svg width="80" height="80" viewBox="0 0 80 80" fill="none" xmlns="http://www.w3.org/2000/svg">
<rect x="23.3335" y="16.667" width="40" height="40" rx="10" fill="url(#paint0_linear)"/>
<path d="M30.8696 30.0004H20C14.4772 30.0004 10 34.4775 10 40.0004V60.0004C10 65.5232 14.4772 70.0004 20 70.0004H40C45.5229 70.0004 50 65.5232 50 60.0004V47.7781" stroke="#161251" stroke-width="2" stroke-linecap="round"/>
<path d="M56.087 36.6666L63 36.6666C66.866 36.6666 70 33.5326 70 29.6666L70 17C70 13.134 66.866 9.99996 63 9.99996L50.3333 9.99996C46.4673 9.99996 43.3333 13.134 43.3333 17L43.3333 24.8148" stroke="#161251" stroke-width="1.8" stroke-linecap="round"/>
<defs>
<linearGradient id="paint0_linear" x1="63.3335" y1="56.667" x2="15.2381" y2="22.1611" gradientUnits="userSpaceOnUse">
<stop stop-color="#0087FC" stop-opacity="0.48"/>
<stop offset="1" stop-color="#0087FC" stop-opacity="0.2"/>
</linearGradient>
</defs>
</svg>
