<svg width="80" height="80" viewBox="0 0 80 80" fill="none" xmlns="http://www.w3.org/2000/svg">
<path d="M12 33C12 28.5817 15.5817 25 20 25H27.6667C29.8304 25 31.9357 25.7018 33.6667 27L36.3333 29C38.0643 30.2982 40.1696 31 42.3333 31H52C56.4183 31 60 34.5817 60 39V55C60 59.4183 56.4183 63 52 63H20C15.5817 63 12 59.4183 12 55V33Z" fill="url(#paint0_linear)"/>
<path d="M20 36V25C20 20.5817 23.5817 17 28 17H35.6667C37.8304 17 39.9357 17.7018 41.6667 19L44.3333 21C46.0643 22.2982 48.1696 23 50.3333 23H60C64.4183 23 68 26.5817 68 31V47C68 51.4183 64.4183 55 60 55H44" stroke="#161251" stroke-width="1.8" stroke-linecap="round"/>
<defs>
<linearGradient id="paint0_linear" x1="60" y1="63" x2="12" y2="19.5" gradientUnits="userSpaceOnUse">
<stop stop-color="#0087FC" stop-opacity="0.48"/>
<stop offset="1" stop-color="#0087FC" stop-opacity="0.2"/>
</linearGradient>
</defs>
</svg>
