<svg width="80" height="80" viewBox="0 0 80 80" fill="none" xmlns="http://www.w3.org/2000/svg">
<path d="M54.3478 25.4073C54.3478 45.6839 36.6087 57.9565 32.1739 57.9565C27.7391 57.9565 10 45.6839 10 25.4073C10 13.6194 25.5217 11 32.1739 11C38.8261 11 54.3478 13.6194 54.3478 25.4073Z" fill="url(#paint0_linear)"/>
<path d="M23.0435 32.2254C23.0435 26.9965 25.6628 23.3913 29.2583 20.9466C31.7361 19.2619 34.6776 18.1284 37.5447 17.3945C40.9384 16.5259 44.228 16.2173 46.5217 16.2173C53.5652 16.2173 70 19.1278 70 32.2254C70 54.7549 51.2174 68.3912 46.5217 68.3912C43.8126 68.3912 36.4142 63.852 30.6394 55.6846C29.84 54.5541 29.0717 53.354 28.3513 52.0868" stroke="#161251" stroke-width="2" stroke-linecap="round"/>
<path d="M58.261 37.2649C58.261 48.5297 48.8697 55.3478 46.5218 55.3478C45.1673 55.3478 41.4681 53.0782 38.5807 48.9945C38.181 48.4293 37.7969 47.8292 37.4367 47.1956C36.9734 46.3807 36.5496 45.5103 36.1833 44.587C35.3258 42.4254 34.7827 39.9737 34.7827 37.2649C34.7827 34.6505 36.0924 32.8478 37.8901 31.6255C39.1291 30.7832 40.5998 30.2164 42.0334 29.8495C43.7302 29.4152 45.375 29.2609 46.5218 29.2609C50.0436 29.2609 58.261 30.7161 58.261 37.2649Z" stroke="#161251" stroke-width="1.8"/>
<defs>
<linearGradient id="paint0_linear" x1="54.3478" y1="57.9565" x2="-1.0073" y2="20.4485" gradientUnits="userSpaceOnUse">
<stop stop-color="#0087FC" stop-opacity="0.48"/>
<stop offset="1" stop-color="#0087FC" stop-opacity="0.2"/>
</linearGradient>
</defs>
</svg>
