<svg width="80" height="80" viewBox="0 0 80 80" fill="none" xmlns="http://www.w3.org/2000/svg">
<rect x="10" y="28.6667" width="39.3333" height="41.5185" rx="10" fill="url(#paint0_linear)"/>
<path d="M32.4469 23.031H27.2964C26.1918 23.031 25.2964 23.9264 25.2964 25.031V36.6727C25.2964 37.7773 26.1918 38.6727 27.2964 38.6727H37.5974C38.702 38.6727 39.5974 39.5682 39.5974 40.6727V50.7037C39.5974 51.8083 40.4929 52.7037 41.5974 52.7037H52.699C53.8036 52.7037 54.699 51.8083 54.699 50.7037V40.6727C54.699 39.5682 55.5945 38.6727 56.699 38.6727H67.0001C68.1047 38.6727 69.0001 37.7773 69.0001 36.6727V25.031C69.0001 23.9264 68.1047 23.031 67.0001 23.031H56.699C55.5945 23.031 54.699 22.1355 54.699 21.031V11C54.699 9.89543 53.8036 9 52.699 9H41.5974C40.4929 9 39.5974 9.89543 39.5974 11V14.9229" stroke="#161251" stroke-width="2" stroke-linecap="round"/>
<defs>
<linearGradient id="paint0_linear" x1="49.3333" y1="70.1852" x2="0.332933" y2="36.8802" gradientUnits="userSpaceOnUse">
<stop stop-color="#0087FC" stop-opacity="0.48"/>
<stop offset="1" stop-color="#0087FC" stop-opacity="0.2"/>
</linearGradient>
</defs>
</svg>
