<svg width="60" height="60" viewBox="0 0 60 60" fill="none" xmlns="http://www.w3.org/2000/svg">
<path d="M7 25.6087C7 21.1904 10.5817 17.6087 15 17.6087H19.3623C21.526 17.6087 23.6314 18.3105 25.3623 19.6087L26.6377 20.5652C28.3686 21.8634 30.474 22.5652 32.6377 22.5652H38.6522C43.0705 22.5652 46.6522 26.1469 46.6522 30.5652V41C46.6522 45.4183 43.0705 49 38.6522 49H15C10.5817 49 7 45.4183 7 41V25.6087Z" fill="url(#paint0_linear)"/>
<path d="M13.6087 26.6957V19C13.6087 14.5817 17.1904 11 21.6087 11H25.971C28.1347 11 30.2401 11.7018 31.971 13L33.2464 13.9565C34.9773 15.2547 37.0827 15.9565 39.2464 15.9565H45.2609C49.6792 15.9565 53.2609 19.5382 53.2609 23.9565V34.3913C53.2609 38.8096 49.6792 42.3913 45.2609 42.3913H33.4348" stroke="#161251" stroke-width="1.8" stroke-linecap="round"/>
<defs>
<linearGradient id="paint0_linear" x1="46.6522" y1="49" x2="7" y2="13.0652" gradientUnits="userSpaceOnUse">
<stop stop-color="#0087FC" stop-opacity="0.48"/>
<stop offset="1" stop-color="#0087FC" stop-opacity="0.2"/>
</linearGradient>
</defs>
</svg>
