<svg width="80" height="80" viewBox="0 0 80 80" fill="none" xmlns="http://www.w3.org/2000/svg">
<circle cx="32.1455" cy="46.8546" r="22.1455" fill="url(#paint0_linear)"/>
<path d="M28.8813 57.1472L31.365 60.8719C33.9435 64.7389 39.6359 64.7242 42.2144 60.8571V60.8571C43.7019 58.6263 46.4147 57.536 49.0304 58.1251L50.4167 58.4373C54.5696 59.3726 58.2171 55.5363 57.0737 51.4359V51.4359C56.3671 48.9021 57.5126 46.2155 59.8286 44.9683V44.9683C63.7826 42.839 63.7826 37.161 59.8286 35.0317V35.0317C57.5126 33.7845 56.3671 31.0979 57.0737 28.5641V28.5641C58.2171 24.4637 54.5696 20.6274 50.4167 21.5627L49.0304 21.8749C46.4147 22.464 43.7019 21.3737 42.2144 19.1429V19.1429C39.6359 15.2758 33.9435 15.2611 31.365 19.1281L28.8813 22.8528" stroke="#161251" stroke-width="1.90476" stroke-linecap="round"/>
<path d="M44.9505 39.9999C44.9505 35.0293 40.9036 30.9999 35.9115 30.9999C33.5965 30.9999 31.4847 31.8664 29.8855 33.2916C28.0363 34.9395 26.8726 37.3344 26.8726 39.9999C26.8726 44.9704 30.9194 48.9999 35.9115 48.9999" stroke="#161251" stroke-width="1.8" stroke-linecap="round"/>
<defs>
<linearGradient id="paint0_linear" x1="54.2909" y1="69" x2="1.03623" y2="30.7926" gradientUnits="userSpaceOnUse">
<stop stop-color="#0087FC" stop-opacity="0.48"/>
<stop offset="1" stop-color="#0087FC" stop-opacity="0.2"/>
</linearGradient>
</defs>
</svg>
