<svg width="60" height="60" viewBox="0 0 60 60" fill="none" xmlns="http://www.w3.org/2000/svg">
<path d="M28.7099 15.8257C31.5225 15.848 34.1168 17.3458 35.5425 19.7705L38.7101 25.1576L41.7917 30.5943C43.1786 33.0413 43.1786 36.0369 41.7917 38.4839L38.7101 43.9207L35.5425 49.3078C34.1168 51.7325 31.5225 53.2303 28.7099 53.2526L22.4607 53.3023L16.2116 53.2526C13.3989 53.2303 10.8047 51.7325 9.37898 49.3078L6.21138 43.9207L3.12982 38.4839C1.74286 36.0369 1.74286 33.0413 3.12982 30.5943L6.21138 25.1576L9.37898 19.7705C10.8047 17.3458 13.3989 15.848 16.2116 15.8257L22.4607 15.776L28.7099 15.8257Z" fill="url(#paint0_linear)"/>
<path d="M31.5798 27.2331L35.5749 30.8461C36.326 31.5254 37.4665 31.536 38.2301 30.8707L57.1387 14.397C58.0211 13.6282 58.0578 12.2693 57.218 11.4541L50.9334 5.35257C50.1574 4.59918 48.9231 4.59918 48.1471 5.35257L38.3304 14.8833C37.5364 15.6542 36.2673 15.6337 35.4985 14.8376L26.5242 5.5438C25.7729 4.76574 24.5391 4.72596 23.7392 5.454L17.2747 11.3379C16.4011 12.1331 16.4033 13.5081 17.2794 14.3004L20.9562 17.6256" stroke="#161251" stroke-width="2" stroke-linecap="round"/>
<defs>
<linearGradient id="paint0_linear" x1="42.8319" y1="53.3023" x2="-3.35084" y2="17.329" gradientUnits="userSpaceOnUse">
<stop stop-color="#0087FC" stop-opacity="0.48"/>
<stop offset="1" stop-color="#0087FC" stop-opacity="0.2"/>
</linearGradient>
</defs>
</svg>
