<svg width="60" height="60" viewBox="0 0 60 60" fill="none" xmlns="http://www.w3.org/2000/svg">
<path d="M41 19.0456C41 34.591 27.4 44 24 44C20.6 44 7 34.591 7 19.0456C7 10.0082 18.9 8 24 8C29.1 8 41 10.0082 41 19.0456Z" fill="url(#paint0_linear)"/>
<path d="M17.0001 24.2728C17.0001 20.264 19.0082 17.5 21.7648 15.6258C23.6644 14.3341 25.9195 13.4651 28.1177 12.9025C30.7195 12.2366 33.2416 11.9999 35.0001 11.9999C40.4001 11.9999 53.0001 14.2313 53.0001 24.2728C53.0001 41.5454 38.6001 51.9999 35.0001 51.9999C32.923 51.9999 27.251 48.5199 22.8236 42.2582C22.2107 41.3915 21.6217 40.4714 21.0694 39.4999" stroke="#161251" stroke-width="2" stroke-linecap="round"/>
<path d="M44.0001 28.1364C44.0001 36.7727 36.8001 41.9999 35.0001 41.9999C33.9616 41.9999 31.1256 40.2599 28.9119 37.1291C28.6055 36.6957 28.311 36.2357 28.0348 35.7499C27.6796 35.1252 27.3548 34.4578 27.0739 33.7499C26.4165 32.0927 26.0001 30.2131 26.0001 28.1364C26.0001 26.132 27.0042 24.75 28.3825 23.8128C29.3323 23.167 30.4599 22.7325 31.5589 22.4512C32.8598 22.1183 34.1209 21.9999 35.0001 21.9999C37.7001 21.9999 44.0001 23.1156 44.0001 28.1364Z" stroke="#161251" stroke-width="1.8"/>
<defs>
<linearGradient id="paint0_linear" x1="41" y1="44" x2="-1.43893" y2="15.2438" gradientUnits="userSpaceOnUse">
<stop stop-color="#0087FC" stop-opacity="0.48"/>
<stop offset="1" stop-color="#0087FC" stop-opacity="0.2"/>
</linearGradient>
</defs>
</svg>
