<svg width="60" height="60" viewBox="0 0 60 60" fill="none" xmlns="http://www.w3.org/2000/svg">
<circle cx="24.0909" cy="35.909" r="19.0909" fill="url(#paint0_linear)"/>
<path d="M21.2769 44.7821L23.4179 47.993C25.6408 51.3267 30.548 51.3139 32.7709 47.9803V47.9803C34.0532 46.0572 36.3918 45.1173 38.6467 45.6251L39.8418 45.8942C43.4219 46.7005 46.5663 43.3934 45.5806 39.8585V39.8585C44.9715 37.6742 45.959 35.3582 47.9555 34.283V34.283C51.3642 32.4474 51.3642 27.5526 47.9555 25.717V25.717C45.959 24.6418 44.9715 22.3258 45.5806 20.1415V20.1415C46.5663 16.6066 43.4219 13.2995 39.8418 14.1058L38.6467 14.3749C36.3918 14.8827 34.0532 13.9428 32.7709 12.0197V12.0197C30.548 8.68607 25.6408 8.67335 23.4179 12.007L21.2769 15.2179" stroke="#161251" stroke-width="1.90476" stroke-linecap="round"/>
<path d="M35.1297 29.9999C35.1297 25.7149 31.641 22.2413 27.3375 22.2413C25.3418 22.2413 23.5213 22.9883 22.1427 24.2169C20.5485 25.6375 19.5453 27.702 19.5453 29.9999C19.5453 34.2849 23.034 37.7585 27.3375 37.7585" stroke="#161251" stroke-width="1.8" stroke-linecap="round"/>
<defs>
<linearGradient id="paint0_linear" x1="43.1818" y1="54.9999" x2="-2.72739" y2="22.0624" gradientUnits="userSpaceOnUse">
<stop stop-color="#0087FC" stop-opacity="0.48"/>
<stop offset="1" stop-color="#0087FC" stop-opacity="0.2"/>
</linearGradient>
</defs>
</svg>
