<svg width="60" height="60" viewBox="0 0 60 60" fill="none" xmlns="http://www.w3.org/2000/svg">
<rect x="3" y="20.0001" width="36" height="38" rx="10" fill="url(#paint0_linear)"/>
<path d="M23.5445 14.8419H19C17.8954 14.8419 17 15.7373 17 16.8419V27.1581C17 28.2626 17.8954 29.1581 19 29.1581H28.0891C29.1937 29.1581 30.0891 30.0535 30.0891 31.1581V40C30.0891 41.1045 30.9845 42 32.0891 42H41.9109C43.0154 42 43.9109 41.1045 43.9109 40V31.1581C43.9109 30.0535 44.8063 29.1581 45.9109 29.1581H55C56.1045 29.1581 57 28.2626 57 27.1581V16.8419C57 15.7373 56.1045 14.8419 55 14.8419H45.9109C44.8063 14.8419 43.9109 13.9465 43.9109 12.8419V4C43.9109 2.89543 43.0154 2 41.9109 2H32.0891C30.9845 2 30.0891 2.89543 30.0891 4V7.42095" stroke="#161251" stroke-width="2" stroke-linecap="round"/>
<defs>
<linearGradient id="paint0_linear" x1="39" y1="58" x2="-5.84782" y2="27.5175" gradientUnits="userSpaceOnUse">
<stop stop-color="#0087FC" stop-opacity="0.48"/>
<stop offset="1" stop-color="#0087FC" stop-opacity="0.2"/>
</linearGradient>
</defs>
</svg>
