<svg width="264" height="55" viewBox="0 0 264 55" fill="none" xmlns="http://www.w3.org/2000/svg">
<path fill-rule="evenodd" clip-rule="evenodd" d="M3.90056 41.6176C1.42415 37.4898 0 32.6599 0 27.5C0 12.3223 12.3223 0 27.5 0C42.6777 0 55 12.3223 55 27.5C55 42.6777 42.6777 55 27.5 55C23.3991 55 19.5065 54.1005 16.0093 52.4879L6.47687 53.9917C6.33671 54.0164 6.19282 54.0292 6.04627 54.0292C5.98542 54.0292 5.9251 54.027 5.86513 54.0226L5.85466 54.0219L5.85236 54.0217C4.53395 53.9201 3.51681 52.7941 3.56258 51.46L3.90056 41.6176ZM17.5922 47.7395C20.583 49.2076 23.9459 50.0323 27.5 50.0323C39.9359 50.0323 50.0323 39.9359 50.0323 27.5C50.0323 15.0641 39.9359 4.96774 27.5 4.96774C15.0641 4.96774 4.96774 15.0641 4.96774 27.5C4.96774 31.9247 6.24587 36.0532 8.45279 39.5361C8.74607 39.96 8.91036 40.4782 8.89137 41.0323L8.63074 48.6228L16.0039 47.4597C16.5717 47.3701 17.125 47.4808 17.5922 47.7395Z" fill="url(#paint0_linear)"/>
<path fill-rule="evenodd" clip-rule="evenodd" d="M29.7241 19.0817C31.8147 19.0817 33.5117 20.7954 33.5117 22.906V24.0915L37.3971 20.5951C37.8298 20.2057 38.4486 20.1091 38.9775 20.3486C39.5065 20.588 39.8469 21.1186 39.8469 21.7038C39.8469 24.9932 39.8469 30.0069 39.8469 33.2963C39.8469 33.8815 39.5065 34.4121 38.9775 34.6515C38.4486 34.891 37.8298 34.7944 37.3971 34.4049L33.5117 30.9086V32.094C33.5117 34.2049 31.8145 35.9184 29.7241 35.9184H20.6242C18.5337 35.9184 16.8367 34.2049 16.8367 32.094V22.906C16.8367 20.7954 18.5337 19.0817 20.6242 19.0817H29.7241Z" fill="url(#paint1_linear)"/>
<path d="M71 8.57715H73.66V13.8186H76.8267L79.6134 8.57715H82.552L79.0814 15.0322L83.0587 21.7454H79.9427L76.776 16.349H73.66V21.7454H71V8.57715Z" fill="white"/>
<path d="M90.6144 22.0811C89.6517 22.0811 88.7482 21.9003 87.9037 21.5388C87.0593 21.1774 86.3246 20.6868 85.6997 20.0671C85.0917 19.4474 84.6019 18.7158 84.2304 17.8724C83.8757 17.0289 83.6984 16.1252 83.6984 15.1613C83.6984 14.1973 83.8757 13.2936 84.2304 12.4502C84.6019 11.6067 85.0917 10.8751 85.6997 10.2555C86.3246 9.63577 87.0593 9.14519 87.9037 8.78371C88.7482 8.42223 89.6517 8.24149 90.6144 8.24149C91.5771 8.24149 92.4806 8.42223 93.3251 8.78371C94.1695 9.14519 94.8958 9.63577 95.5038 10.2555C96.1287 10.8751 96.6184 11.6067 96.9731 12.4502C97.3447 13.2936 97.5304 14.1973 97.5304 15.1613C97.5304 16.1252 97.3447 17.0289 96.9731 17.8724C96.6184 18.7158 96.1287 19.4474 95.5038 20.0671C94.8958 20.6868 94.1695 21.1774 93.3251 21.5388C92.4806 21.9003 91.5771 22.0811 90.6144 22.0811ZM90.6144 19.4474C91.2055 19.4474 91.7544 19.3441 92.2611 19.1376C92.7678 18.9138 93.1984 18.6126 93.5531 18.2339C93.9246 17.8552 94.2118 17.4076 94.4144 16.8912C94.634 16.3576 94.7438 15.781 94.7438 15.1613C94.7438 14.5416 94.634 13.9736 94.4144 13.4572C94.2118 12.9235 93.9246 12.4674 93.5531 12.0887C93.1984 11.71 92.7678 11.4174 92.2611 11.2108C91.7544 10.987 91.2055 10.8751 90.6144 10.8751C90.0233 10.8751 89.4744 10.987 88.9677 11.2108C88.4611 11.4174 88.022 11.71 87.6504 12.0887C87.2788 12.4674 86.9917 12.9235 86.7891 13.4572C86.5864 13.9736 86.4851 14.5416 86.4851 15.1613C86.4851 15.781 86.5864 16.3576 86.7891 16.8912C86.9917 17.4076 87.2788 17.8552 87.6504 18.2339C88.022 18.6126 88.4611 18.9138 88.9677 19.1376C89.4744 19.3441 90.0233 19.4474 90.6144 19.4474Z" fill="white"/>
<path d="M99.8217 8.57715H102.482V10.0231C103.022 9.47224 103.656 9.04191 104.382 8.73207C105.125 8.40501 105.944 8.24149 106.839 8.24149C107.785 8.24149 108.663 8.42223 109.474 8.78371C110.284 9.12798 110.985 9.60995 111.576 10.2296C112.184 10.8493 112.657 11.5809 112.995 12.4243C113.35 13.2678 113.527 14.1801 113.527 15.1613C113.527 16.1424 113.35 17.0548 112.995 17.8982C112.657 18.7417 112.184 19.4732 111.576 20.0929C110.985 20.7126 110.284 21.2032 109.474 21.5647C108.663 21.9089 107.785 22.0811 106.839 22.0811C105.944 22.0811 105.125 21.9262 104.382 21.6163C103.656 21.2893 103.022 20.8503 102.482 20.2995V26.393H99.8217V8.57715ZM106.611 19.4474C107.202 19.4474 107.751 19.3441 108.258 19.1376C108.764 18.9138 109.195 18.6126 109.55 18.2339C109.921 17.8552 110.208 17.4076 110.411 16.8912C110.631 16.3576 110.74 15.781 110.74 15.1613C110.74 14.5416 110.631 13.9736 110.411 13.4572C110.208 12.9235 109.921 12.4674 109.55 12.0887C109.195 11.71 108.764 11.4174 108.258 11.2108C107.751 10.987 107.202 10.8751 106.611 10.8751C106.003 10.8751 105.446 10.987 104.939 11.2108C104.432 11.4174 103.993 11.71 103.622 12.0887C103.25 12.4674 102.963 12.9235 102.76 13.4572C102.558 13.9736 102.456 14.5416 102.456 15.1613C102.456 15.781 102.558 16.3576 102.76 16.8912C102.963 17.4076 103.25 17.8552 103.622 18.2339C103.993 18.6126 104.432 18.9138 104.939 19.1376C105.446 19.3441 106.003 19.4474 106.611 19.4474Z" fill="white"/>
<path d="M115.804 8.57715H127.457V21.7454H124.797V11.1592H118.464V21.7454H115.804V8.57715Z" fill="white"/>
<path d="M136.655 22.0811C135.692 22.0811 134.789 21.9003 133.944 21.5388C133.1 21.1774 132.365 20.6868 131.74 20.0671C131.132 19.4474 130.642 18.7158 130.271 17.8724C129.916 17.0289 129.739 16.1252 129.739 15.1613C129.739 14.1973 129.916 13.2936 130.271 12.4502C130.642 11.6067 131.132 10.8751 131.74 10.2555C132.365 9.63577 133.1 9.14519 133.944 8.78371C134.789 8.42223 135.692 8.24149 136.655 8.24149C137.618 8.24149 138.521 8.42223 139.366 8.78371C140.21 9.14519 140.936 9.63577 141.544 10.2555C142.169 10.8751 142.659 11.6067 143.014 12.4502C143.385 13.2936 143.571 14.1973 143.571 15.1613C143.571 16.1252 143.385 17.0289 143.014 17.8724C142.659 18.7158 142.169 19.4474 141.544 20.0671C140.936 20.6868 140.21 21.1774 139.366 21.5388C138.521 21.9003 137.618 22.0811 136.655 22.0811ZM136.655 19.4474C137.246 19.4474 137.795 19.3441 138.302 19.1376C138.808 18.9138 139.239 18.6126 139.594 18.2339C139.965 17.8552 140.252 17.4076 140.455 16.8912C140.675 16.3576 140.784 15.781 140.784 15.1613C140.784 14.5416 140.675 13.9736 140.455 13.4572C140.252 12.9235 139.965 12.4674 139.594 12.0887C139.239 11.71 138.808 11.4174 138.302 11.2108C137.795 10.987 137.246 10.8751 136.655 10.8751C136.064 10.8751 135.515 10.987 135.008 11.2108C134.502 11.4174 134.063 11.71 133.691 12.0887C133.319 12.4674 133.032 12.9235 132.83 13.4572C132.627 13.9736 132.526 14.5416 132.526 15.1613C132.526 15.781 132.627 16.3576 132.83 16.8912C133.032 17.4076 133.319 17.8552 133.691 18.2339C134.063 18.6126 134.502 18.9138 135.008 19.1376C135.515 19.3441 136.064 19.4474 136.655 19.4474Z" fill="white"/>
<path d="M145.862 8.57715H148.522V10.0231C149.063 9.47224 149.696 9.04191 150.422 8.73207C151.165 8.40501 151.985 8.24149 152.88 8.24149C153.825 8.24149 154.704 8.42223 155.514 8.78371C156.325 9.12798 157.026 9.60995 157.617 10.2296C158.225 10.8493 158.698 11.5809 159.036 12.4243C159.39 13.2678 159.568 14.1801 159.568 15.1613C159.568 16.1424 159.39 17.0548 159.036 17.8982C158.698 18.7417 158.225 19.4732 157.617 20.0929C157.026 20.7126 156.325 21.2032 155.514 21.5647C154.704 21.9089 153.825 22.0811 152.88 22.0811C151.985 22.0811 151.165 21.9262 150.422 21.6163C149.696 21.2893 149.063 20.8503 148.522 20.2995V26.393H145.862V8.57715ZM152.652 19.4474C153.243 19.4474 153.792 19.3441 154.298 19.1376C154.805 18.9138 155.236 18.6126 155.59 18.2339C155.962 17.8552 156.249 17.4076 156.452 16.8912C156.671 16.3576 156.781 15.781 156.781 15.1613C156.781 14.5416 156.671 13.9736 156.452 13.4572C156.249 12.9235 155.962 12.4674 155.59 12.0887C155.236 11.71 154.805 11.4174 154.298 11.2108C153.792 10.987 153.243 10.8751 152.652 10.8751C152.044 10.8751 151.486 10.987 150.98 11.2108C150.473 11.4174 150.034 11.71 149.662 12.0887C149.291 12.4674 149.004 12.9235 148.801 13.4572C148.598 13.9736 148.497 14.5416 148.497 15.1613C148.497 15.781 148.598 16.3576 148.801 16.8912C149.004 17.4076 149.291 17.8552 149.662 18.2339C150.034 18.6126 150.473 18.9138 150.98 19.1376C151.486 19.3441 152.044 19.4474 152.652 19.4474Z" fill="white"/>
<path d="M167.772 22.0811C166.826 22.0811 165.948 21.9089 165.137 21.5647C164.327 21.2032 163.617 20.7126 163.009 20.0929C162.418 19.4732 161.945 18.7417 161.591 17.8982C161.253 17.0548 161.084 16.1424 161.084 15.1613C161.084 14.1801 161.253 13.2678 161.591 12.4243C161.945 11.5809 162.418 10.8493 163.009 10.2296C163.617 9.60995 164.327 9.12798 165.137 8.78371C165.948 8.42223 166.826 8.24149 167.772 8.24149C168.667 8.24149 169.478 8.40501 170.204 8.73207C170.947 9.04191 171.589 9.47224 172.129 10.0231V8.57715H174.789V21.7454H172.129V20.2995C171.589 20.8503 170.947 21.2893 170.204 21.6163C169.478 21.9262 168.667 22.0811 167.772 22.0811ZM168 19.4474C168.608 19.4474 169.165 19.3441 169.672 19.1376C170.179 18.9138 170.618 18.6126 170.989 18.2339C171.361 17.8552 171.648 17.4076 171.851 16.8912C172.053 16.3576 172.155 15.781 172.155 15.1613C172.155 14.5416 172.053 13.9736 171.851 13.4572C171.648 12.9235 171.361 12.4674 170.989 12.0887C170.618 11.71 170.179 11.4174 169.672 11.2108C169.165 10.987 168.608 10.8751 168 10.8751C167.409 10.8751 166.86 10.987 166.353 11.2108C165.847 11.4174 165.408 11.71 165.036 12.0887C164.665 12.4674 164.377 12.9235 164.175 13.4572C163.972 13.9736 163.871 14.5416 163.871 15.1613C163.871 15.781 163.972 16.3576 164.175 16.8912C164.377 17.4076 164.665 17.8552 165.036 18.2339C165.408 18.6126 165.847 18.9138 166.353 19.1376C166.86 19.3441 167.409 19.4474 168 19.4474Z" fill="white"/>
<path d="M181.246 11.1592H176.686V8.57715H188.466V11.1592H183.906V21.7454H181.246V11.1592Z" fill="white"/>
<path d="M190.369 8.57715H193.029V17.3043L200.021 8.57715H202.225V21.7454H199.565V13.1215L192.624 21.7454H190.369V8.57715Z" fill="white"/>
<path d="M205.262 8.57715H212.153C212.744 8.57715 213.293 8.67182 213.8 8.86117C214.306 9.0333 214.737 9.2829 215.092 9.60995C215.463 9.91979 215.75 10.2985 215.953 10.746C216.156 11.1936 216.257 11.6756 216.257 12.192C216.257 13.2248 215.869 14.0596 215.092 14.6965C215.733 15.0236 216.198 15.4625 216.485 16.0133C216.789 16.547 216.941 17.1322 216.941 17.7691C216.941 18.3372 216.831 18.8708 216.612 19.37C216.392 19.8519 216.088 20.2737 215.7 20.6351C215.311 20.9794 214.847 21.2548 214.306 21.4614C213.766 21.6507 213.175 21.7454 212.533 21.7454H205.262V8.57715ZM212.533 19.2409C213.006 19.2409 213.394 19.0945 213.698 18.8019C214.002 18.5093 214.154 18.1392 214.154 17.6916C214.154 17.2441 214.002 16.874 213.698 16.5814C213.394 16.2888 213.006 16.1424 212.533 16.1424H207.922V19.2409H212.533ZM212.153 13.6637C212.541 13.6637 212.862 13.5518 213.116 13.328C213.386 13.0871 213.521 12.7686 213.521 12.3727C213.521 11.9768 213.386 11.667 213.116 11.4432C212.862 11.2022 212.541 11.0817 212.153 11.0817H207.922V13.6637H212.153Z" fill="white"/>
<path d="M219.339 8.57715H221.999V13.7928H228.561V8.57715H231.221V21.7454H228.561V16.3748H221.999V21.7454H219.339V8.57715Z" fill="white"/>
<path d="M234.257 8.57715H236.917V12.3985H239.983C240.675 12.3985 241.317 12.519 241.908 12.76C242.499 13.001 243.014 13.3367 243.453 13.767C243.892 14.1801 244.23 14.6707 244.467 15.2387C244.72 15.8068 244.847 16.4179 244.847 17.072C244.847 17.7261 244.72 18.3372 244.467 18.9052C244.23 19.4732 243.892 19.9724 243.453 20.4028C243.014 20.8159 242.499 21.1429 241.908 21.3839C241.317 21.6249 240.675 21.7454 239.983 21.7454H234.257V8.57715ZM239.983 19.1634C240.591 19.1634 241.097 18.9654 241.503 18.5695C241.925 18.1736 242.136 17.6744 242.136 17.072C242.136 16.4695 241.925 15.9703 241.503 15.5744C241.097 15.1785 240.591 14.9805 239.983 14.9805H236.917V19.1634H239.983ZM246.443 8.57715H249.103V21.7454H246.443V8.57715Z" fill="white"/>
<path d="M252.144 8.57715H254.804V17.3043L261.796 8.57715H264V21.7454H261.34V13.1215L254.399 21.7454H252.144V8.57715ZM258.072 6.82138C257.312 6.82138 256.662 6.70088 256.121 6.4599C255.581 6.20169 255.133 5.91767 254.779 5.60783C254.441 5.29799 254.188 5.00536 254.019 4.72995C253.85 4.45453 253.748 4.2824 253.715 4.21355L255.539 3C255.556 3.03443 255.615 3.13771 255.716 3.30984C255.834 3.48197 255.995 3.66272 256.197 3.85206C256.417 4.04141 256.679 4.21355 256.983 4.36847C257.287 4.52339 257.65 4.60085 258.072 4.60085C258.494 4.60085 258.857 4.52339 259.161 4.36847C259.465 4.21355 259.719 4.04141 259.921 3.85206C260.141 3.66272 260.301 3.48197 260.403 3.30984C260.521 3.13771 260.588 3.03443 260.605 3L262.429 4.21355C262.396 4.2824 262.294 4.45453 262.125 4.72995C261.956 5.00536 261.695 5.29799 261.34 5.60783C261.002 5.91767 260.563 6.20169 260.023 6.4599C259.482 6.70088 258.832 6.82138 258.072 6.82138Z" fill="white"/>
<path d="M71 32.1841H73.2293L78.4734 40.1625L83.6414 32.1841H85.8707V45.3524H83.2107V37.3998L79.3854 43.3126H77.4854L73.66 37.4256V45.3524H71V32.1841Z" fill="white"/>
<path d="M95.0422 45.688C94.0796 45.688 93.176 45.5073 92.3315 45.1458C91.4871 44.7843 90.7524 44.2938 90.1275 43.6741C89.5195 43.0544 89.0382 42.3228 88.6835 41.4794C88.3289 40.6359 88.1515 39.7322 88.1515 38.7682C88.1515 37.8043 88.3204 36.9006 88.6582 36.0571C89.0129 35.2137 89.4942 34.4821 90.1022 33.8624C90.7102 33.2427 91.4195 32.7522 92.2302 32.3907C93.0578 32.0292 93.9444 31.8485 94.8902 31.8485C95.836 31.8485 96.7142 32.0292 97.5249 32.3907C98.3525 32.7522 99.0702 33.2427 99.6782 33.8624C100.286 34.4821 100.759 35.2223 101.097 36.083C101.452 36.9264 101.629 37.8387 101.629 38.8199C101.629 39.1814 101.604 39.6031 101.553 40.0851H90.9635C91.2338 40.963 91.732 41.6773 92.4582 42.2281C93.2013 42.779 94.1133 43.0544 95.1942 43.0544C96.0556 43.0544 96.8156 42.8823 97.4742 42.538C98.1329 42.1937 98.6902 41.772 99.1462 41.2728L100.894 43.0544C100.134 43.8978 99.2476 44.552 98.2342 45.0167C97.2209 45.4643 96.1569 45.688 95.0422 45.688ZM98.9689 37.6063C98.7493 36.6252 98.2765 35.8506 97.5502 35.2825C96.824 34.7145 95.9627 34.4305 94.9662 34.4305C93.9698 34.4305 93.1 34.7145 92.3569 35.2825C91.6307 35.8506 91.1578 36.6252 90.9382 37.6063H98.9689Z" fill="white"/>
<path d="M109.86 45.688C108.897 45.688 108.002 45.5073 107.175 45.1458C106.347 44.7843 105.621 44.2938 104.996 43.6741C104.388 43.0544 103.907 42.3228 103.552 41.4794C103.197 40.6359 103.02 39.7322 103.02 38.7682C103.02 37.8043 103.189 36.9006 103.527 36.0571C103.881 35.2137 104.363 34.4821 104.971 33.8624C105.579 33.2427 106.297 32.7522 107.124 32.3907C107.952 32.0292 108.847 31.8485 109.809 31.8485C111.009 31.8485 112.115 32.1239 113.128 32.6747C114.141 33.2255 114.961 33.9915 115.585 34.9727L113.584 36.4703C113.111 35.8161 112.554 35.3256 111.912 34.9985C111.287 34.6542 110.603 34.4821 109.86 34.4821C109.269 34.4821 108.72 34.594 108.213 34.8178C107.724 35.0243 107.301 35.3256 106.947 35.7215C106.592 36.1002 106.313 36.5477 106.111 37.0641C105.908 37.5805 105.807 38.1486 105.807 38.7682C105.807 39.3879 105.908 39.9646 106.111 40.4982C106.33 41.0146 106.626 41.4621 106.997 41.8408C107.369 42.2195 107.808 42.5208 108.315 42.7445C108.821 42.9511 109.37 43.0544 109.961 43.0544C111.498 43.0544 112.748 42.3228 113.711 40.8597L115.763 42.254C115.172 43.3384 114.353 44.1819 113.305 44.7843C112.258 45.3868 111.11 45.688 109.86 45.688Z" fill="white"/>
<path d="M123.542 45.688C122.58 45.688 121.676 45.5073 120.832 45.1458C119.987 44.7843 119.253 44.2938 118.628 43.6741C118.02 43.0544 117.538 42.3228 117.184 41.4794C116.829 40.6359 116.652 39.7322 116.652 38.7682C116.652 37.8043 116.821 36.9006 117.158 36.0571C117.513 35.2137 117.994 34.4821 118.602 33.8624C119.21 33.2427 119.92 32.7522 120.73 32.3907C121.558 32.0292 122.445 31.8485 123.39 31.8485C124.336 31.8485 125.214 32.0292 126.025 32.3907C126.853 32.7522 127.57 33.2427 128.178 33.8624C128.786 34.4821 129.259 35.2223 129.597 36.083C129.952 36.9264 130.129 37.8387 130.129 38.8199C130.129 39.1814 130.104 39.6031 130.053 40.0851H119.464C119.734 40.963 120.232 41.6773 120.958 42.2281C121.701 42.779 122.613 43.0544 123.694 43.0544C124.556 43.0544 125.316 42.8823 125.974 42.538C126.633 42.1937 127.19 41.772 127.646 41.2728L129.394 43.0544C128.634 43.8978 127.748 44.552 126.734 45.0167C125.721 45.4643 124.657 45.688 123.542 45.688ZM127.469 37.6063C127.249 36.6252 126.777 35.8506 126.05 35.2825C125.324 34.7145 124.463 34.4305 123.466 34.4305C122.47 34.4305 121.6 34.7145 120.857 35.2825C120.131 35.8506 119.658 36.6252 119.438 37.6063H127.469Z" fill="white"/>
<path d="M132.28 32.1841H134.94V37.3998H141.502V32.1841H144.162V45.3524H141.502V39.9818H134.94V45.3524H132.28V32.1841Z" fill="white"/>
<path d="M145.932 42.7704H146.21C146.818 42.7704 147.291 42.5896 147.629 42.2281C147.967 41.8494 148.212 41.4105 148.364 40.9113C148.516 40.3949 148.6 39.8785 148.617 39.3621C148.651 38.8457 148.668 38.4326 148.668 38.1227V32.1841H158.548V42.7704H160.498V48.3475H157.838V45.3524H148.592V48.3475H145.932V42.7704ZM155.888 42.7704V34.7661H151.302V37.6322C151.302 38.7166 151.209 39.7236 151.024 40.6531C150.838 41.5654 150.492 42.2712 149.985 42.7704H155.888Z" fill="white"/>
<path d="M164.871 38.6391L161.502 32.1841H164.44L167.126 37.4256H169.178V32.1841H171.812V37.4256H173.864L176.55 32.1841H179.488L176.119 38.6391L179.995 45.3524H176.904L173.814 39.956H171.812V45.3524H169.178V39.956H167.176L164.086 45.3524H160.995L164.871 38.6391Z" fill="white"/>
<path d="M187.519 45.688C186.556 45.688 185.653 45.5073 184.808 45.1458C183.964 44.7843 183.229 44.2938 182.604 43.6741C181.996 43.0544 181.515 42.3228 181.16 41.4794C180.806 40.6359 180.628 39.7322 180.628 38.7682C180.628 37.8043 180.797 36.9006 181.135 36.0571C181.49 35.2137 181.971 34.4821 182.579 33.8624C183.187 33.2427 183.896 32.7522 184.707 32.3907C185.535 32.0292 186.421 31.8485 187.367 31.8485C188.313 31.8485 189.191 32.0292 190.002 32.3907C190.829 32.7522 191.547 33.2427 192.155 33.8624C192.763 34.4821 193.236 35.2223 193.574 36.083C193.929 36.9264 194.106 37.8387 194.106 38.8199C194.106 39.1814 194.081 39.6031 194.03 40.0851H183.44C183.711 40.963 184.209 41.6773 184.935 42.2281C185.678 42.779 186.59 43.0544 187.671 43.0544C188.532 43.0544 189.292 42.8823 189.951 42.538C190.61 42.1937 191.167 41.772 191.623 41.2728L193.371 43.0544C192.611 43.8978 191.724 44.552 190.711 45.0167C189.698 45.4643 188.634 45.688 187.519 45.688ZM191.446 37.6063C191.226 36.6252 190.753 35.8506 190.027 35.2825C189.301 34.7145 188.44 34.4305 187.443 34.4305C186.447 34.4305 185.577 34.7145 184.834 35.2825C184.108 35.8506 183.635 36.6252 183.415 37.6063H191.446Z" fill="white"/>
<path d="M196.257 32.1841H198.917V33.63C199.457 33.0792 200.091 32.6489 200.817 32.339C201.56 32.012 202.379 31.8485 203.274 31.8485C204.22 31.8485 205.098 32.0292 205.909 32.3907C206.72 32.7349 207.421 33.2169 208.012 33.8366C208.62 34.4563 209.093 35.1879 209.43 36.0313C209.785 36.8748 209.962 37.7871 209.962 38.7682C209.962 39.7494 209.785 40.6617 209.43 41.5052C209.093 42.3486 208.62 43.0802 208.012 43.6999C207.421 44.3196 206.72 44.8102 205.909 45.1716C205.098 45.5159 204.22 45.688 203.274 45.688C202.379 45.688 201.56 45.5331 200.817 45.2233C200.091 44.8962 199.457 44.4573 198.917 43.9065V50H196.257V32.1841ZM203.046 43.0544C203.637 43.0544 204.186 42.9511 204.693 42.7445C205.2 42.5208 205.63 42.2195 205.985 41.8408C206.357 41.4621 206.644 41.0146 206.846 40.4982C207.066 39.9646 207.176 39.3879 207.176 38.7682C207.176 38.1486 207.066 37.5805 206.846 37.0641C206.644 36.5305 206.357 36.0743 205.985 35.6957C205.63 35.317 205.2 35.0243 204.693 34.8178C204.186 34.594 203.637 34.4821 203.046 34.4821C202.438 34.4821 201.881 34.594 201.374 34.8178C200.868 35.0243 200.429 35.317 200.057 35.6957C199.685 36.0743 199.398 36.5305 199.196 37.0641C198.993 37.5805 198.892 38.1486 198.892 38.7682C198.892 39.3879 198.993 39.9646 199.196 40.4982C199.398 41.0146 199.685 41.4621 200.057 41.8408C200.429 42.2195 200.868 42.5208 201.374 42.7445C201.881 42.9511 202.438 43.0544 203.046 43.0544Z" fill="white"/>
<defs>
<linearGradient id="paint0_linear" x1="4.19558" y1="53.2026" x2="43.261" y2="4.96774" gradientUnits="userSpaceOnUse">
<stop stop-color="#FF952E"/>
<stop offset="0.43" stop-color="#F04886"/>
<stop offset="1" stop-color="#7747FF"/>
</linearGradient>
<linearGradient id="paint1_linear" x1="15.3008" y1="40.1493" x2="34.9109" y2="19.2692" gradientUnits="userSpaceOnUse">
<stop stop-color="#00FF58"/>
<stop offset="1" stop-color="#00D8FF"/>
</linearGradient>
</defs>
</svg>
